<?xml version="1.0" standalone="no"?>
<!DOCTYPE svg PUBLIC "-//W3C//DTD SVG 20010904//EN"
 "http://www.w3.org/TR/2001/REC-SVG-20010904/DTD/svg10.dtd">
<svg version="1.0" xmlns="http://www.w3.org/2000/svg"
 width="160.000000pt" height="145.000000pt" viewBox="0 0 160.000000 145.000000"
 preserveAspectRatio="xMidYMid meet">

<g transform="translate(0.000000,145.000000) scale(0.100000,-0.100000)"
fill="#000000" stroke="none">
<path d="M720 1412 c-36 -21 -132 -85 -215 -142 -82 -57 -199 -137 -260 -179
-169 -115 -221 -157 -235 -190 -11 -28 -8 -43 33 -163 159 -465 216 -628 232
-661 34 -73 26 -72 525 -72 499 0 491 -1 525 71 17 35 73 195 217 617 55 162
59 180 48 208 -14 33 -66 75 -235 190 -60 42 -182 125 -270 186 -170 117 -263
173 -286 173 -8 0 -43 -17 -79 -38z m164 -17 c113 -68 657 -448 676 -473 11
-13 20 -35 20 -48 0 -26 -53 -188 -170 -524 -40 -113 -75 -214 -78 -225 -3
-11 -16 -37 -28 -57 -19 -30 -31 -38 -66 -43 -24 -3 -238 -5 -476 -3 l-434 3
-24 30 c-13 17 -28 44 -33 60 -5 17 -46 136 -91 265 -126 362 -160 467 -160
496 0 18 12 39 38 63 38 35 673 473 702 484 35 13 70 5 124 -28z"/>
<path d="M776 1245 c-11 -8 -15 -15 -9 -15 7 0 15 5 18 10 4 7 14 6 28 -2 20
-10 21 -10 8 5 -16 20 -20 21 -45 2z"/>
<path d="M620 1188 c-23 -35 -34 -54 -24 -43 44 49 56 65 48 65 -5 0 -16 -10
-24 -22z"/>
<path d="M675 1200 c-3 -6 1 -7 9 -4 18 7 21 14 7 14 -6 0 -13 -4 -16 -10z"/>
<path d="M900 1206 c0 -2 7 -7 16 -10 8 -3 12 -2 9 4 -6 10 -25 14 -25 6z"/>
<path d="M971 1183 c13 -16 28 -32 33 -38 12 -14 -11 27 -27 48 -8 9 -18 17
-22 17 -5 0 2 -12 16 -27z"/>
<path d="M740 1180 c19 -13 30 -13 30 0 0 6 -10 10 -22 10 -19 0 -20 -2 -8
-10z"/>
<path d="M830 1180 c0 -6 10 -8 24 -4 15 3 29 -1 40 -11 9 -9 16 -12 16 -6 0
14 -33 31 -59 31 -12 0 -21 -5 -21 -10z"/>
<path d="M1080 1159 c19 -19 37 -33 39 -32 7 4 -32 44 -54 56 -11 5 -4 -5 15
-24z"/>
<path d="M500 1155 c-13 -14 -22 -27 -19 -29 2 -2 14 10 27 25 29 36 24 38 -8
4z"/>
<path d="M695 1169 c-11 -16 -1 -19 13 -3 7 8 8 14 3 14 -5 0 -13 -5 -16 -11z"/>
<path d="M581 1104 c-1 -21 6 -37 22 -50 22 -19 22 -19 5 1 -9 11 -18 34 -21
50 l-4 30 -2 -31z"/>
<path d="M851 1114 c0 -11 3 -14 6 -6 3 7 2 16 -1 19 -3 4 -6 -2 -5 -13z"/>
<path d="M1011 1106 c0 -16 -9 -39 -18 -50 -17 -21 -17 -21 6 0 16 15 21 29
18 50 l-4 29 -2 -29z"/>
<path d="M630 1113 c0 -11 26 -36 50 -47 8 -4 6 0 -5 8 -11 9 -26 24 -32 33
-7 9 -13 12 -13 6z"/>
<path d="M690 1111 c0 -15 38 -33 58 -28 13 4 11 5 -5 6 -12 0 -29 8 -37 17
-9 8 -16 11 -16 5z"/>
<path d="M900 1112 c0 -6 -15 -16 -32 -21 -22 -6 -26 -9 -12 -10 24 -1 62 24
51 35 -4 4 -7 2 -7 -4z"/>
<path d="M951 1097 c-13 -21 -12 -21 5 -5 10 10 16 20 13 22 -3 3 -11 -5 -18
-17z"/>
<path d="M472 1090 c0 -14 2 -19 5 -12 2 6 2 18 0 25 -3 6 -5 1 -5 -13z"/>
<path d="M1122 1090 c0 -14 2 -19 5 -12 2 6 2 18 0 25 -3 6 -5 1 -5 -13z"/>
<path d="M366 1085 c-11 -8 -15 -15 -9 -15 7 0 15 6 20 13 5 8 10 2 14 -18 l7
-30 1 33 c1 35 -5 38 -33 17z"/>
<path d="M1201 1073 c2 -25 2 -25 6 -5 4 20 7 21 21 10 15 -12 16 -11 3 5 -20
25 -31 21 -30 -10z"/>
<path d="M790 1055 c-6 -16 -14 -57 -17 -90 -3 -33 -10 -65 -15 -72 -5 -6 -6
-28 -2 -47 4 -24 2 -36 -5 -36 -6 0 -11 -14 -11 -31 0 -26 -3 -29 -21 -24 -19
6 -20 5 -9 -15 10 -18 9 -28 -6 -55 -15 -28 -16 -38 -6 -59 7 -17 8 -27 1 -32
-19 -11 -30 -54 -19 -75 9 -15 7 -21 -6 -26 -29 -11 -49 11 -55 63 l-7 49 2
-54 1 -53 -42 5 -43 5 0 -38 c0 -33 -5 -40 -42 -64 -56 -36 -87 -75 -67 -87 8
-4 39 -23 69 -43 l55 -35 24 52 c31 65 101 134 175 173 l56 29 56 -29 c74 -39
144 -108 175 -173 l24 -52 55 35 c30 20 61 39 69 43 20 12 -19 62 -70 90 -35
20 -39 26 -39 60 l0 39 -42 -5 -43 -5 1 53 2 54 -7 -49 c-6 -52 -26 -74 -55
-63 -13 5 -15 11 -6 26 11 21 0 64 -19 75 -7 5 -6 15 1 32 10 21 9 31 -6 59
-15 27 -16 37 -6 55 11 20 10 21 -9 15 -18 -5 -21 -2 -21 24 0 17 -5 31 -11
31 -7 0 -8 14 -4 39 4 24 2 42 -4 46 -6 3 -11 25 -11 48 0 23 -6 65 -14 92
l-13 50 -13 -30z m-2 -467 c8 -8 15 -8 27 2 14 12 18 11 26 -1 5 -8 9 -22 9
-31 0 -19 -34 -58 -50 -58 -19 0 -50 40 -50 63 0 36 16 47 38 25z"/>
<path d="M330 1045 c-6 -8 -10 -19 -8 -24 1 -6 8 1 15 14 13 28 11 31 -7 10z"/>
<path d="M480 1055 c0 -16 30 -55 42 -55 7 0 5 6 -4 13 -8 6 -20 21 -26 32 -6
11 -12 15 -12 10z"/>
<path d="M712 1045 c4 -6 12 -22 17 -36 6 -15 10 -18 10 -8 1 9 -7 25 -16 36
-10 10 -15 14 -11 8z"/>
<path d="M874 1035 c-9 -14 -15 -27 -13 -30 3 -2 12 10 21 26 21 36 15 39 -8
4z"/>
<path d="M1110 1052 c0 -7 -9 -21 -20 -32 -11 -11 -16 -20 -10 -20 13 0 44 49
36 57 -3 3 -6 1 -6 -5z"/>
<path d="M1261 1043 c7 -12 15 -20 18 -17 3 2 -3 12 -13 22 -17 16 -18 16 -5
-5z"/>
<path d="M400 1024 c0 -6 7 -19 16 -30 14 -18 14 -18 3 6 -14 31 -19 36 -19
24z"/>
<path d="M897 999 c-26 -17 -47 -35 -47 -41 0 -6 15 3 33 18 19 16 42 34 53
41 10 6 16 12 13 12 -3 1 -27 -13 -52 -30z"/>
<path d="M705 987 c22 -19 42 -33 45 -30 5 5 -33 37 -65 55 -11 6 -2 -5 20
-25z"/>
<path d="M558 993 c6 -2 18 -2 25 0 6 3 1 5 -13 5 -14 0 -19 -2 -12 -5z"/>
<path d="M1013 993 c9 -2 23 -2 30 0 6 3 -1 5 -18 5 -16 0 -22 -2 -12 -5z"/>
<path d="M320 961 c0 -6 4 -13 10 -16 6 -3 7 1 4 9 -7 18 -14 21 -14 7z"/>
<path d="M488 963 c12 -2 30 -2 40 0 9 3 -1 5 -23 4 -22 0 -30 -2 -17 -4z"/>
<path d="M1078 963 c12 -2 30 -2 40 0 9 3 -1 5 -23 4 -22 0 -30 -2 -17 -4z"/>
<path d="M1266 953 c-6 -14 -5 -15 5 -6 7 7 10 15 7 18 -3 3 -9 -2 -12 -12z"/>
<path d="M706 937 c3 -10 9 -15 12 -12 3 3 0 11 -7 18 -10 9 -11 8 -5 -6z"/>
<path d="M885 939 c-4 -6 -5 -12 -2 -15 2 -3 7 2 10 11 7 17 1 20 -8 4z"/>
<path d="M231 913 c-6 -14 -10 -28 -7 -30 2 -2 7 5 11 16 3 12 11 19 16 16 5
-4 9 -2 9 4 0 22 -18 19 -29 -6z"/>
<path d="M548 933 c6 -2 18 -2 25 0 6 3 1 5 -13 5 -14 0 -19 -2 -12 -5z"/>
<path d="M1048 933 c6 -2 18 -2 25 0 6 3 1 5 -13 5 -14 0 -19 -2 -12 -5z"/>
<path d="M1347 934 c-10 -11 -9 -26 2 -19 5 3 13 -4 16 -16 4 -11 9 -18 12
-16 2 3 -2 17 -9 31 -8 15 -17 24 -21 20z"/>
<path d="M679 898 c42 -45 51 -47 50 -10 -2 25 -2 25 -6 3 -5 -23 -5 -23 -41
10 l-37 34 34 -37z"/>
<path d="M914 899 l-29 -30 -6 23 c-7 22 -7 21 -8 -4 -1 -37 8 -35 49 7 19 19
32 35 29 35 -3 0 -18 -14 -35 -31z"/>
<path d="M656 890 c12 -14 24 -33 27 -42 4 -10 11 -18 17 -18 16 0 -3 30 -37
60 l-28 25 21 -25z"/>
<path d="M921 875 c-34 -39 -37 -45 -21 -45 6 0 13 8 17 18 3 9 15 27 26 40
11 12 18 22 15 22 -3 0 -20 -16 -37 -35z"/>
<path d="M1158 903 c6 -2 18 -2 25 0 6 3 1 5 -13 5 -14 0 -19 -2 -12 -5z"/>
<path d="M528 873 c12 -2 30 -2 40 0 9 3 -1 5 -23 4 -22 0 -30 -2 -17 -4z"/>
<path d="M1038 873 c12 -2 30 -2 40 0 9 3 -1 5 -23 4 -22 0 -30 -2 -17 -4z"/>
<path d="M212 834 c-2 -28 4 -47 18 -62 12 -12 24 -22 27 -22 4 0 -3 10 -15
23 -11 12 -22 40 -25 62 l-4 40 -1 -41z"/>
<path d="M287 849 c12 -12 24 -21 27 -18 2 2 -8 13 -22 23 l-27 19 22 -24z"/>
<path d="M415 860 c-3 -6 1 -7 9 -4 18 7 21 14 7 14 -6 0 -13 -4 -16 -10z"/>
<path d="M632 841 c25 -16 48 -35 51 -43 4 -9 6 -9 6 -1 1 14 -75 73 -92 73
-6 0 10 -13 35 -29z"/>
<path d="M952 840 c-23 -17 -42 -33 -42 -37 0 -3 8 1 18 9 9 9 33 25 52 37 19
11 30 21 24 21 -6 0 -30 -14 -52 -30z"/>
<path d="M1100 866 c0 -2 7 -7 16 -10 8 -3 12 -2 9 4 -6 10 -25 14 -25 6z"/>
<path d="M1160 866 c0 -2 7 -7 16 -10 8 -3 12 -2 9 4 -6 10 -25 14 -25 6z"/>
<path d="M1301 850 c-13 -11 -19 -20 -14 -20 6 0 18 9 28 20 23 25 17 25 -14
0z"/>
<path d="M1382 836 c-1 -26 -10 -48 -24 -63 -15 -16 -17 -22 -7 -18 25 9 41
48 36 86 l-4 34 -1 -39z"/>
<path d="M405 803 c-27 -25 -36 -37 -20 -25 28 19 84 73 74 72 -2 -1 -26 -22
-54 -47z"/>
<path d="M1160 826 c14 -15 39 -37 55 -49 36 -24 26 -14 -35 39 -30 25 -37 29
-20 10z"/>
<path d="M358 833 c7 -3 16 -2 19 1 4 3 -2 6 -13 5 -11 0 -14 -3 -6 -6z"/>
<path d="M1228 833 c7 -3 16 -2 19 1 4 3 -2 6 -13 5 -11 0 -14 -3 -6 -6z"/>
<path d="M518 823 c6 -2 18 -2 25 0 6 3 1 5 -13 5 -14 0 -19 -2 -12 -5z"/>
<path d="M1053 823 c9 -2 23 -2 30 0 6 3 -1 5 -18 5 -16 0 -22 -2 -12 -5z"/>
<path d="M580 816 c0 -2 8 -10 18 -17 15 -13 16 -12 3 4 -13 16 -21 21 -21 13z"/>
<path d="M994 798 l-19 -23 23 19 c21 18 27 26 19 26 -2 0 -12 -10 -23 -22z"/>
<path d="M405 759 c-30 -29 -54 -53 -52 -55 2 -2 29 21 61 51 32 30 56 55 53
55 -3 0 -31 -23 -62 -51z"/>
<path d="M1185 755 c33 -33 62 -59 64 -57 7 4 -60 71 -94 95 -16 12 -3 -6 30
-38z"/>
<path d="M469 781 c-13 -10 -39 -41 -57 -67 -24 -35 -25 -39 -5 -14 15 19 43
50 61 68 37 36 37 42 1 13z"/>
<path d="M584 779 c15 -12 25 -28 22 -35 -3 -8 -1 -14 4 -14 18 0 10 26 -13
48 -13 12 -27 22 -31 22 -5 0 3 -10 18 -21z"/>
<path d="M1002 777 c-23 -24 -29 -47 -12 -47 5 0 7 6 4 14 -3 7 7 23 22 35 15
11 22 21 17 21 -5 0 -19 -10 -31 -23z"/>
<path d="M1130 769 c19 -19 46 -48 60 -65 34 -42 21 -18 -19 34 -18 23 -43 48
-54 54 -13 7 -8 -2 13 -23z"/>
<path d="M630 770 c0 -5 5 -10 11 -10 5 0 7 5 4 10 -3 6 -8 10 -11 10 -2 0 -4
-4 -4 -10z"/>
<path d="M670 770 c-9 -6 -10 -10 -3 -10 6 0 15 5 18 10 8 12 4 12 -15 0z"/>
<path d="M917 769 c7 -7 15 -10 18 -7 3 3 -2 9 -12 12 -14 6 -15 5 -6 -5z"/>
<path d="M170 748 c0 -6 3 -9 6 -6 3 4 21 -10 41 -30 l35 -37 -33 42 c-34 43
-49 53 -49 31z"/>
<path d="M320 750 c-8 -5 -10 -10 -5 -10 6 0 17 5 25 10 8 5 11 10 5 10 -5 0
-17 -5 -25 -10z"/>
<path d="M1381 717 l-33 -42 35 37 c20 20 38 34 41 30 3 -3 6 0 6 6 0 22 -15
12 -49 -31z"/>
<path d="M1308 743 c7 -3 16 -2 19 1 4 3 -2 6 -13 5 -11 0 -14 -3 -6 -6z"/>
<path d="M568 723 c7 -3 16 -2 19 1 4 3 -2 6 -13 5 -11 0 -14 -3 -6 -6z"/>
<path d="M1018 723 c7 -3 16 -2 19 1 4 3 -2 6 -13 5 -11 0 -14 -3 -6 -6z"/>
<path d="M528 713 c7 -3 16 -2 19 1 4 3 -2 6 -13 5 -11 0 -14 -3 -6 -6z"/>
<path d="M1058 713 c7 -3 16 -2 19 1 4 3 -2 6 -13 5 -11 0 -14 -3 -6 -6z"/>
<path d="M1432 700 c0 -14 2 -19 5 -12 2 6 2 18 0 25 -3 6 -5 1 -5 -13z"/>
<path d="M161 694 c0 -11 3 -14 6 -6 3 7 2 16 -1 19 -3 4 -6 -2 -5 -13z"/>
<path d="M485 700 c-3 -6 1 -7 9 -4 18 7 21 14 7 14 -6 0 -13 -4 -16 -10z"/>
<path d="M1090 706 c0 -2 7 -7 16 -10 8 -3 12 -2 9 4 -6 10 -25 14 -25 6z"/>
<path d="M568 693 c7 -3 16 -2 19 1 4 3 -2 6 -13 5 -11 0 -14 -3 -6 -6z"/>
<path d="M601 696 c2 -2 18 -6 34 -10 22 -5 26 -4 15 4 -14 9 -59 15 -49 6z"/>
<path d="M978 693 c7 -3 16 -2 19 1 4 3 -2 6 -13 5 -11 0 -14 -3 -6 -6z"/>
<path d="M1018 693 c7 -3 16 -2 19 1 4 3 -2 6 -13 5 -11 0 -14 -3 -6 -6z"/>
<path d="M320 680 c-9 -6 -10 -10 -3 -10 6 0 15 5 18 10 8 12 4 12 -15 0z"/>
<path d="M936 674 c-9 -24 -2 -26 12 -4 7 11 8 20 3 20 -5 0 -12 -7 -15 -16z"/>
<path d="M1267 679 c7 -7 15 -10 18 -7 3 3 -2 9 -12 12 -14 6 -15 5 -6 -5z"/>
<path d="M462 643 l-38 -38 36 30 c19 16 39 33 45 37 5 5 6 8 2 8 -4 0 -25
-17 -45 -37z"/>
<path d="M1095 674 c6 -5 28 -25 50 -44 l40 -35 -30 33 c-17 19 -39 38 -50 44
-11 6 -15 7 -10 2z"/>
<path d="M414 648 l-19 -23 23 19 c21 18 27 26 19 26 -2 0 -12 -10 -23 -22z"/>
<path d="M1175 650 c10 -11 20 -20 23 -20 3 0 -3 9 -13 20 -10 11 -20 20 -23
20 -3 0 3 -9 13 -20z"/>
<path d="M354 635 c-9 -13 -25 -27 -36 -31 -11 -3 -17 -8 -15 -11 9 -8 44 15
61 42 9 14 14 25 11 25 -2 0 -12 -11 -21 -25z"/>
<path d="M1235 637 c19 -29 53 -53 63 -43 3 3 0 6 -7 6 -7 0 -26 15 -43 33
-28 29 -29 30 -13 4z"/>
<path d="M1420 651 c0 -6 -12 -23 -26 -37 -14 -15 -20 -24 -13 -22 18 6 54 56
46 65 -4 3 -7 1 -7 -6z"/>
<path d="M620 647 c0 -2 6 -10 14 -16 11 -9 16 -9 22 1 4 7 4 10 -1 6 -4 -4
-14 -3 -22 3 -7 6 -13 9 -13 6z"/>
<path d="M965 640 c-4 -6 -11 -7 -17 -4 -7 4 -8 2 -4 -5 6 -9 11 -9 22 0 14
11 18 19 10 19 -3 0 -8 -5 -11 -10z"/>
<path d="M197 609 c12 -12 24 -21 27 -18 2 2 -8 13 -22 23 l-27 19 22 -24z"/>
<path d="M355 573 c-21 -27 -28 -39 -16 -28 23 19 66 75 59 75 -2 0 -21 -21
-43 -47z"/>
<path d="M1218 593 c11 -16 30 -37 43 -48 12 -11 5 1 -16 28 -43 52 -57 63
-27 20z"/>
<path d="M170 548 c0 -6 3 -8 7 -5 3 4 13 1 22 -6 14 -11 14 -10 2 6 -15 20
-31 22 -31 5z"/>
<path d="M380 539 c-7 -11 -10 -23 -7 -25 2 -2 9 7 15 21 14 30 7 33 -8 4z"/>
<path d="M1211 540 c14 -31 19 -36 19 -24 0 6 -7 19 -16 30 -14 18 -14 18 -3
-6z"/>
<path d="M1399 543 c-12 -16 -12 -17 2 -6 9 7 19 10 22 6 4 -3 7 -1 7 5 0 17
-16 15 -31 -5z"/>
<path d="M258 513 c6 -2 18 -2 25 0 6 3 1 5 -13 5 -14 0 -19 -2 -12 -5z"/>
<path d="M1323 513 c9 -2 23 -2 30 0 6 3 -1 5 -18 5 -16 0 -22 -2 -12 -5z"/>
<path d="M212 465 c15 -16 29 -27 31 -24 3 2 -10 15 -27 28 l-31 24 27 -28z"/>
<path d="M1377 465 c-15 -14 -24 -25 -19 -25 5 0 19 11 32 25 30 32 23 32 -13
0z"/>
<path d="M334 458 l-19 -23 23 19 c21 18 27 26 19 26 -2 0 -12 -10 -23 -22z"/>
<path d="M1255 460 c10 -11 20 -20 23 -20 3 0 -3 9 -13 20 -10 11 -20 20 -23
20 -3 0 3 -9 13 -20z"/>
<path d="M780 441 c-8 -15 -8 -21 -1 -17 6 4 11 0 11 -8 0 -9 -5 -16 -10 -16
-7 0 -7 -6 0 -19 5 -11 7 -33 4 -50 -5 -24 -3 -31 9 -31 22 0 30 16 17 39 -7
13 -7 22 0 26 15 9 12 58 -4 80 -13 18 -14 18 -26 -4z"/>
<path d="M324 295 c-3 -8 -4 -20 -1 -27 3 -7 6 -2 7 12 1 23 2 24 14 8 7 -10
16 -15 19 -11 8 7 -11 33 -25 33 -5 0 -11 -7 -14 -15z"/>
<path d="M866 293 c7 -4 14 -17 17 -28 5 -16 5 -15 4 4 -1 14 -9 26 -17 28
-10 3 -11 2 -4 -4z"/>
<path d="M1270 283 c0 -5 10 -18 23 -29 l22 -19 -20 25 c-11 14 -21 27 -22 29
-2 2 -3 0 -3 -6z"/>
<path d="M712 260 c0 -14 2 -19 5 -12 2 6 2 18 0 25 -3 6 -5 1 -5 -13z"/>
<path d="M780 270 c8 -5 20 -10 25 -10 6 0 3 5 -5 10 -8 5 -19 10 -25 10 -5 0
-3 -5 5 -10z"/>
<path d="M1240 265 c0 -8 2 -15 4 -15 2 0 6 7 10 15 3 8 1 15 -4 15 -6 0 -10
-7 -10 -15z"/>
<path d="M385 234 c-9 -15 -12 -24 -7 -20 6 3 12 2 14 -4 1 -5 8 2 15 15 15
34 -1 41 -22 9z"/>
<path d="M1210 250 c0 -5 5 -10 11 -10 5 0 7 5 4 10 -3 6 -8 10 -11 10 -2 0
-4 -4 -4 -10z"/>
<path d="M1190 231 c0 -7 -5 -9 -11 -5 -6 3 -3 -5 6 -20 21 -32 24 -32 20 -1
-2 27 -15 48 -15 26z"/>
<path d="M459 221 c10 -6 11 -13 2 -29 -18 -34 -12 -39 9 -7 19 29 14 45 -15
45 -5 0 -4 -4 4 -9z"/>
<path d="M1224 208 c0 -17 2 -17 12 -4 6 9 13 15 15 13 2 -1 3 0 1 2 -8 14
-28 6 -28 -11z"/>
<path d="M1150 217 c0 -14 24 -57 32 -57 5 0 1 12 -9 28 -22 35 -23 36 -23 29z"/>
<path d="M435 199 c-4 -6 -5 -12 -2 -15 2 -3 7 2 10 11 7 17 1 20 -8 4z"/>
<path d="M491 184 c-6 -15 -9 -29 -6 -32 3 -3 5 1 5 9 0 11 2 11 8 1 6 -8 9
-2 9 18 0 16 -1 30 -2 30 -1 0 -7 -12 -14 -26z"/>
<path d="M1116 202 c-2 -4 2 -15 9 -25 11 -15 13 -15 18 -2 4 8 3 14 -1 14
-19 -3 -25 2 -12 11 9 6 10 10 3 10 -6 0 -14 -3 -17 -8z"/>
<path d="M535 181 c-3 -5 -1 -12 5 -16 5 -3 10 1 10 9 0 18 -6 21 -15 7z"/>
<path d="M596 154 c-5 -14 -4 -15 9 -4 17 14 19 20 6 20 -5 0 -12 -7 -15 -16z"/>
<path d="M517 147 c-3 -8 1 -14 9 -14 16 0 19 13 5 21 -5 3 -11 0 -14 -7z"/>
<path d="M1003 128 c0 -18 2 -27 5 -20 2 6 8 9 14 6 8 -5 -5 29 -17 44 -1 1
-2 -13 -2 -30z"/>
<path d="M556 133 c-6 -14 -5 -15 5 -6 7 7 10 15 7 18 -3 3 -9 -2 -12 -12z"/>
<path d="M662 130 c0 -14 2 -19 5 -12 2 6 2 18 0 25 -3 6 -5 1 -5 -13z"/>
<path d="M681 143 c-2 -20 18 -63 29 -63 5 0 10 5 10 12 0 6 -3 8 -7 4 -4 -4
-13 8 -19 26 -7 18 -13 28 -13 21z"/>
<path d="M916 142 c-3 -5 1 -9 9 -9 8 0 15 4 15 9 0 4 -4 8 -9 8 -6 0 -12 -4
-15 -8z"/>
<path d="M956 125 c8 -37 12 -41 24 -29 7 7 7 19 1 35 -5 13 -10 17 -11 9 0
-13 -1 -13 -10 0 -8 11 -9 7 -4 -15z"/>
<path d="M740 110 c0 -39 6 -39 12 0 3 16 1 30 -4 30 -4 0 -8 -13 -8 -30z"/>
<path d="M772 110 c0 -19 2 -27 5 -17 2 9 2 25 0 35 -3 9 -5 1 -5 -18z"/>
<path d="M792 110 c0 -19 2 -27 5 -17 2 9 2 25 0 35 -3 9 -5 1 -5 -18z"/>
<path d="M813 105 c0 -22 2 -30 4 -17 2 12 2 30 0 40 -3 9 -5 -1 -4 -23z"/>
<path d="M580 126 c0 -2 7 -6 15 -10 8 -3 15 -1 15 4 0 6 -7 10 -15 10 -8 0
-15 -2 -15 -4z"/>
<path d="M851 94 c0 -11 3 -14 6 -6 3 7 2 16 -1 19 -3 4 -6 -2 -5 -13z"/>
<path d="M871 94 c0 -11 3 -14 6 -6 3 7 2 16 -1 19 -3 4 -6 -2 -5 -13z"/>
<path d="M940 101 c0 -7 -5 -9 -12 -5 -7 5 -8 3 -3 -5 5 -9 10 -10 18 -2 6 6
8 14 4 18 -4 3 -7 1 -7 -6z"/>
<path d="M890 90 c0 -5 5 -10 11 -10 5 0 7 5 4 10 -3 6 -8 10 -11 10 -2 0 -4
-4 -4 -10z"/>
</g>
</svg>
